<svg width="18" height="18" viewBox="0 0 18 18" fill="none" xmlns="http://www.w3.org/2000/svg">
<path d="M9.84375 8.75C9.84375 9.36523 9.33105 9.84375 8.75 9.84375C8.13477 9.84375 7.65625 9.36523 7.65625 8.75C7.65625 8.16895 8.13477 7.65625 8.75 7.65625C9.33105 7.65625 9.84375 8.16895 9.84375 8.75ZM3.82812 8.75C3.82812 6.0498 6.01562 3.82812 8.75 3.82812C11.4502 3.82812 13.6719 6.0498 13.6719 8.75C13.6719 11.4844 11.4502 13.6719 8.75 13.6719C6.01562 13.6719 3.82812 11.4844 3.82812 8.75ZM8.75 11.4844C10.2539 11.4844 11.4844 10.2881 11.4844 8.75C11.4844 7.24609 10.2539 6.01562 8.75 6.01562C7.21191 6.01562 6.01562 7.24609 6.01562 8.75C6.01562 10.2881 7.21191 11.4844 8.75 11.4844ZM17.5 8.75C17.5 13.6035 13.5693 17.5 8.75 17.5C3.89648 17.5 0 13.6035 0 8.75C0 3.93066 3.89648 0 8.75 0C13.5693 0 17.5 3.93066 17.5 8.75ZM8.75 2.1875C5.09277 2.1875 2.1875 5.12695 2.1875 8.75C2.1875 12.373 5.09277 15.3125 8.75 15.3125C12.373 15.3125 15.3125 12.373 15.3125 8.75C15.3125 5.12695 12.373 2.1875 8.75 2.1875Z" fill="#F0F0F0"/>
</svg>
