<svg width="22" height="25" viewBox="0 0 22 25" fill="none" xmlns="http://www.w3.org/2000/svg">
<path d="M15.7715 2.53906C19.3359 5.81055 21.875 11.1816 21.875 13.7695C21.875 19.9707 16.9434 25 10.9375 25C4.88281 25 0 19.9707 0 13.7695C0 10.2539 3.36914 4.49219 8.20312 0C10.0586 1.75781 11.7188 3.61328 13.0371 5.46875C13.8672 4.44336 14.7461 3.4668 15.7715 2.53906ZM14.8438 19.1406C17.2363 17.4805 17.7734 14.209 16.4551 11.6699C16.3086 11.377 16.1133 11.0352 15.918 10.6934L13.0371 13.9648C13.0371 13.9648 8.54492 8.20312 8.20312 7.8125C5.85938 10.6934 4.6875 12.3535 4.6875 14.209C4.6875 18.0176 7.51953 20.3125 11.0352 20.3125C12.4512 20.3125 13.7695 19.873 14.8438 19.1406Z" fill="#507080"/>
</svg>
