<svg width="31" height="31" viewBox="0 0 31 31" fill="none" xmlns="http://www.w3.org/2000/svg">
<path d="M21.3281 1.46484C22.793 0 25.1953 0 26.6602 1.46484L28.9453 3.75C30.4102 5.21484 30.4102 7.61719 28.9453 9.08203L26.1328 11.8945L18.5156 4.27734L21.3281 1.46484ZM24.7852 13.2422L11.1328 26.8945C10.5469 27.4805 9.78516 27.9492 8.96484 28.1836L1.875 30.2344C1.40625 30.4102 0.878906 30.293 0.527344 29.8828C0.117188 29.5312 0 29.0039 0.117188 28.5352L2.22656 21.4453C2.46094 20.625 2.92969 19.8633 3.51562 19.2773L17.168 5.625L24.7852 13.2422Z" fill="#F0F0F0"/>
</svg>
