<svg width="30" height="30" viewBox="0 0 30 30" fill="none" xmlns="http://www.w3.org/2000/svg">
<path d="M25.7812 0.292969C25.8398 0.117188 26.0156 0 26.25 0C26.4258 0 26.6016 0.117188 26.6602 0.292969L27.4805 2.51953L29.707 3.33984C29.8828 3.39844 30 3.57422 30 3.75C30 3.98438 29.8828 4.16016 29.707 4.21875L27.4805 5.03906L26.6602 7.20703C26.6016 7.38281 26.4258 7.5 26.25 7.5C26.0156 7.5 25.8398 7.38281 25.7812 7.20703L24.9609 5.03906L22.7344 4.21875C22.5586 4.16016 22.5 3.98438 22.5 3.75C22.5 3.57422 22.5586 3.39844 22.7344 3.33984L24.9609 2.51953L25.7812 0.292969ZM16.9336 5.74219C17.6367 4.98047 18.8672 4.98047 19.5703 5.74219L21.2695 7.44141L22.2656 6.38672C22.6172 6.03516 23.2617 6.03516 23.6133 6.38672C23.9648 6.73828 23.9648 7.38281 23.6133 7.73438L22.5586 8.73047L24.2578 10.4297C25.0195 11.1328 25.0195 12.3633 24.2578 13.0664L23.6133 13.7109C24.082 15 24.375 16.4062 24.375 17.8125C24.375 24.5508 18.8672 30 12.1875 30C5.44922 30 0 24.5508 0 17.8125C0 11.1328 5.44922 5.625 12.1875 5.625C13.5938 5.625 15 5.91797 16.2891 6.38672L16.9336 5.74219ZM5.56641 17.3438C5.56641 14.0039 8.32031 11.25 11.6602 11.25H12.1289C12.6562 11.25 13.0664 10.8398 13.0664 10.3125C13.0664 9.84375 12.6562 9.375 12.1289 9.375H11.6602C7.26562 9.375 3.69141 12.9492 3.69141 17.3438V17.8125C3.69141 18.3398 4.16016 18.75 4.62891 18.75C5.15625 18.75 5.56641 18.3398 5.56641 17.8125V17.3438Z" fill="#F0F0F0"/>
</svg>
