<svg width="25" height="25" viewBox="0 0 25 25" fill="none" xmlns="http://www.w3.org/2000/svg">
<path d="M8.98438 0C10.4492 0 11.7188 1.26953 11.7188 2.73438V22.2656C11.7188 23.7793 10.4492 25 8.98438 25C7.56836 25 6.39648 23.9746 6.25 22.5586C6.00586 22.6562 5.71289 22.6562 5.46875 22.6562C3.71094 22.6562 2.34375 21.2891 2.34375 19.5312C2.34375 19.1895 2.39258 18.8477 2.49023 18.5059C1.02539 17.9688 0 16.5527 0 14.8438C0 13.3301 0.878906 11.9629 2.19727 11.3281C1.80664 10.791 1.5625 10.1074 1.5625 9.375C1.5625 7.91016 2.58789 6.64062 4.00391 6.34766C3.90625 6.05469 3.90625 5.76172 3.90625 5.46875C3.90625 4.05273 4.88281 2.7832 6.25 2.44141C6.39648 1.07422 7.56836 0 8.98438 0ZM18.7012 2.44141C20.0684 2.7832 21.0938 4.05273 21.0938 5.46875C21.0938 5.76172 21.0449 6.05469 20.9473 6.34766C22.3633 6.64062 23.4375 7.91016 23.4375 9.375C23.4375 10.1074 23.1445 10.791 22.7539 11.3281C24.0723 11.9629 25 13.3301 25 14.8438C25 16.5527 23.9258 17.9688 22.4609 18.5059C22.5586 18.8477 22.6562 19.1895 22.6562 19.5312C22.6562 21.2891 21.2402 22.6562 19.5312 22.6562C19.2383 22.6562 18.9453 22.6562 18.7012 22.5586C18.5547 23.9746 17.3828 25 16.0156 25C14.502 25 13.2812 23.7793 13.2812 22.2656V2.73438C13.2812 1.26953 14.502 0 16.0156 0C17.3828 0 18.5547 1.07422 18.7012 2.44141Z" fill="#507080"/>
</svg>
