<svg width="73" height="73" viewBox="0 0 73 73" fill="none" xmlns="http://www.w3.org/2000/svg">
<path d="M17.2775 18.7981H29.7174C40.6369 0.691127 57.6381 2.08616e-05 67.8664 1.93512C69.5251 2.21156 70.7691 3.45555 71.0455 5.1142C72.9806 15.3426 72.2895 32.3438 54.1825 43.2632V55.7031C54.1825 59.1587 52.2474 62.476 49.2066 64.2729L37.0431 71.4604C35.9373 72.0132 34.6934 72.1515 33.7258 71.4604C32.62 70.9075 32.0672 69.8017 32.0672 68.5577V52.8005C32.0672 49.6214 30.8232 46.5806 28.6116 44.369C26.4001 42.1575 23.3592 40.9135 20.1801 40.9135H4.42293C3.17893 40.9135 2.07317 40.3606 1.52028 39.2548C0.829175 38.2873 0.829175 37.0433 1.52028 35.9375L8.70778 23.7741C10.5047 20.7332 13.822 18.7981 17.2775 18.7981ZM54.1825 13.2693C51.0035 13.2693 48.6537 15.7572 48.6537 18.7981C48.6537 21.9772 51.0035 24.3269 54.1825 24.3269C57.2234 24.3269 59.7114 21.9772 59.7114 18.7981C59.7114 15.7572 57.2234 13.2693 54.1825 13.2693ZM24.0503 66.0697C17.2775 72.9808 1.10562 71.875 1.10562 71.875C1.10562 71.875 -0.000151753 55.7031 6.77269 48.9303C11.6104 44.2308 19.3508 44.2308 24.0503 48.9303C28.7498 53.6298 28.7498 61.3702 24.0503 66.0697ZM17.5539 55.4267C16.0335 53.7681 13.4073 53.7681 11.8869 55.4267C9.53711 57.6382 9.95177 63.0289 9.95177 63.0289C9.95177 63.0289 15.3424 63.4435 17.5539 61.0938C19.2126 59.5733 19.2126 56.9471 17.5539 55.4267Z" fill="#507080"/>
</svg>
