<svg width="24" height="25" viewBox="0 0 24 25" fill="none" xmlns="http://www.w3.org/2000/svg">
<path d="M23.584 8.1543C23.7793 8.59375 23.6328 9.0332 23.291 9.375L21.1914 11.2793C21.2402 11.6699 21.2891 12.1094 21.2891 12.5C21.2891 12.9395 21.2402 13.3789 21.1914 13.7695L23.291 15.6738C23.6328 16.0156 23.7793 16.4551 23.584 16.8945C23.3887 17.4805 23.1445 18.0176 22.8516 18.5547L22.6074 18.9453C22.2656 19.4824 21.9238 20.0195 21.5332 20.5078C21.2402 20.8496 20.752 20.9473 20.3125 20.8008L17.627 19.9707C16.9434 20.459 16.2109 20.8496 15.4785 21.1914L14.8438 23.9746C14.7461 24.4141 14.4043 24.7559 13.9648 24.8535C13.2812 24.9512 12.5977 25 11.8652 25C11.1816 25 10.498 24.9512 9.81445 24.8535C9.375 24.7559 9.0332 24.4141 8.93555 23.9746L8.30078 21.1914C7.56836 20.8496 6.83594 20.459 6.15234 19.9707L3.4668 20.8008C3.02734 20.9473 2.53906 20.8496 2.24609 20.5078C1.85547 20.0195 1.51367 19.4824 1.17188 18.9453L0.927734 18.5547C0.634766 18.0176 0.390625 17.4805 0.195312 16.8945C0 16.4551 0.146484 16.0156 0.488281 15.6738L2.58789 13.7695C2.53906 13.3789 2.53906 12.9395 2.53906 12.5C2.53906 12.1094 2.53906 11.6699 2.58789 11.2793L0.488281 9.375C0.146484 9.0332 0 8.59375 0.195312 8.1543C0.390625 7.56836 0.634766 7.03125 0.927734 6.49414L1.17188 6.10352C1.51367 5.56641 1.85547 5.0293 2.24609 4.54102C2.53906 4.19922 3.02734 4.10156 3.4668 4.24805L6.15234 5.07812C6.83594 4.58984 7.56836 4.15039 8.30078 3.85742L8.93555 1.07422C9.0332 0.634766 9.375 0.292969 9.81445 0.195312C10.498 0.0976562 11.1816 0 11.9141 0C12.5977 0 13.2812 0.0976562 13.9648 0.195312C14.4043 0.292969 14.7461 0.634766 14.8438 1.07422L15.4785 3.85742C16.2109 4.15039 16.9434 4.58984 17.627 5.07812L20.3125 4.24805C20.752 4.10156 21.2402 4.19922 21.5332 4.54102C21.9238 5.0293 22.2656 5.56641 22.6074 6.10352L22.8516 6.49414C23.1445 7.03125 23.3887 7.56836 23.584 8.1543ZM11.9141 16.4062C14.0625 16.4062 15.8203 14.6973 15.8203 12.5C15.8203 10.3516 14.0625 8.59375 11.9141 8.59375C9.7168 8.59375 8.00781 10.3516 8.00781 12.5C8.00781 14.6973 9.7168 16.4062 11.9141 16.4062Z" fill="#507080"/>
</svg>
