<svg width="49" height="50" viewBox="0 0 49 50" fill="none" xmlns="http://www.w3.org/2000/svg">
<g clip-path="url(#clip0_463_2301)">
<path d="M47.7117 23.5432C48.2469 24.74 48.5865 26.0194 48.7254 27.3245C48.8592 28.6297 48.7923 29.9503 48.5145 31.2348C48.2417 32.5193 47.7683 33.7522 47.1096 34.8871C46.6773 35.6455 46.1679 36.3574 45.5812 37.0125C44.9997 37.6625 44.3513 38.2506 43.6463 38.7665C42.9361 39.2823 42.1797 39.7157 41.3769 40.0716C40.5792 40.4224 39.7456 40.6907 38.8913 40.8661C38.4899 42.1145 37.893 43.2958 37.1211 44.3585C36.3543 45.4212 35.4229 46.3549 34.3628 47.1235C33.3027 47.8973 32.1294 48.4957 30.884 48.8981C29.6387 49.3057 28.3367 49.5068 27.0245 49.5068C26.1548 49.512 25.28 49.4191 24.4257 49.2438C23.5766 49.0632 22.743 48.7898 21.9453 48.4338C21.1477 48.0779 20.3912 47.6342 19.6862 47.1184C18.9863 46.6025 18.3379 46.0093 17.7616 45.3541C16.4751 45.6327 15.1577 45.6997 13.8557 45.5656C12.5538 45.4263 11.2775 45.0859 10.0785 44.5494C8.88461 44.018 7.77821 43.2958 6.8056 42.4137C5.833 41.5315 5.00448 40.4998 4.35093 39.3649C3.91351 38.6065 3.55329 37.807 3.28055 36.9764C3.00781 36.1459 2.82769 35.2895 2.73507 34.4177C2.64244 33.551 2.64758 32.6741 2.74021 31.8022C2.83284 30.9356 3.02325 30.0792 3.29599 29.2487C2.42116 28.2737 1.70071 27.1646 1.16552 25.9678C0.635471 24.7658 0.290685 23.4916 0.156887 22.1865C0.0179434 20.8813 0.0899883 19.5607 0.36273 18.2762C0.635471 16.9917 1.10891 15.7587 1.76761 14.6238C2.19987 13.8655 2.70934 13.1484 3.29084 12.4985C3.87235 11.8485 4.5259 11.2604 5.23091 10.7445C5.93592 10.2286 6.69754 9.79014 7.49518 9.43935C8.29796 9.0834 9.13162 8.82031 9.98587 8.64492C10.3873 7.39136 10.9842 6.21518 11.751 5.15249C12.5229 4.0898 13.4543 3.15608 14.5144 2.38227C15.5745 1.61363 16.7478 1.01522 17.9931 0.607687C19.2385 0.20531 20.5405 -0.00103749 21.8527 0.0041212C22.7224 -0.00103749 23.5972 0.0866601 24.4515 0.267214C25.3057 0.447768 26.1394 0.71602 26.937 1.07197C27.7346 1.43308 28.4911 1.87156 29.1961 2.38743C29.9011 2.90846 30.5495 3.49655 31.1259 4.1517C32.4073 3.87829 33.7247 3.81123 35.0266 3.94536C36.3286 4.07948 37.5997 4.42511 38.7987 4.95646C39.9926 5.49296 41.099 6.21002 42.0716 7.09215C43.0442 7.96913 43.8727 8.99571 44.5263 10.1358C44.9637 10.8889 45.3239 11.6885 45.5966 12.5242C45.8694 13.3548 46.0546 14.2111 46.1421 15.083C46.2348 15.9548 46.2348 16.8317 46.137 17.7036C46.0443 18.5754 45.8539 19.4317 45.5812 20.2623C46.4612 21.2373 47.1765 22.3412 47.7117 23.5432ZM30.565 45.5656C31.6868 45.1013 32.7057 44.4152 33.5651 43.5537C34.4245 42.6922 35.109 41.6708 35.5721 40.5411C36.0353 39.4165 36.2771 38.2093 36.2771 36.9919V25.488C36.2737 25.4777 36.2703 25.4657 36.2668 25.4519C36.2634 25.4416 36.2582 25.4313 36.2514 25.421C36.2445 25.4106 36.2359 25.402 36.2257 25.3952C36.2154 25.3848 36.2051 25.378 36.1948 25.3745L32.0419 22.9706V36.8681C32.0419 37.0074 32.0213 37.1518 31.9853 37.2859C31.9493 37.4252 31.8978 37.5542 31.8258 37.678C31.7537 37.8018 31.6714 37.9153 31.5685 38.0133C31.4684 38.1133 31.356 38.1999 31.234 38.2712L21.3998 43.9613C21.3175 44.0128 21.1786 44.0851 21.1065 44.1263C21.5131 44.472 21.9556 44.7763 22.4188 45.0446C22.8871 45.3128 23.3708 45.5398 23.8751 45.7255C24.3794 45.9061 24.8992 46.0454 25.4241 46.1382C25.9541 46.2311 26.4893 46.2775 27.0245 46.2775C28.239 46.2775 29.4431 46.0351 30.565 45.5656ZM7.14524 37.7554C7.75763 38.8129 8.56556 39.7311 9.52787 40.474C10.4953 41.2168 11.5914 41.7585 12.7647 42.0732C13.938 42.3879 15.1628 42.4704 16.367 42.3105C17.5712 42.1506 18.729 41.7585 19.784 41.1498L29.7262 35.3978L29.7519 35.3721C29.7588 35.3652 29.7639 35.3549 29.7673 35.3411C29.7742 35.3308 29.7794 35.3205 29.7828 35.3102V30.461L17.7822 37.42C17.6587 37.4923 17.53 37.5439 17.3962 37.5851C17.2573 37.6212 17.1183 37.6367 16.9742 37.6367C16.8353 37.6367 16.6963 37.6212 16.5574 37.5851C16.4236 37.5439 16.2898 37.4923 16.1663 37.42L6.33216 31.7249C6.24468 31.6733 6.11603 31.5959 6.04399 31.5495C5.95136 32.0808 5.90504 32.6173 5.90504 33.1538C5.90504 33.6903 5.9565 34.2268 6.04913 34.7582C6.14176 35.2844 6.28585 35.8054 6.46596 36.3109C6.65122 36.8165 6.87765 37.3014 7.14524 37.7657V37.7554ZM4.56192 16.2437C3.95468 17.3012 3.56358 18.467 3.40405 19.6742C3.24453 20.8813 3.32686 22.1039 3.64077 23.2853C3.95468 24.4614 4.49502 25.5602 5.23605 26.5301C5.97709 27.4947 6.89823 28.3047 7.94803 28.9134L17.8851 34.6705C17.8954 34.6739 17.9074 34.6773 17.9211 34.6808H17.9571C17.9708 34.6808 17.9829 34.6773 17.9931 34.6705C18.0034 34.667 18.0137 34.6619 18.024 34.655L22.1923 32.2407L10.1917 25.2971C10.0734 25.2249 9.96014 25.1372 9.85722 25.0392C9.7575 24.9389 9.67103 24.8262 9.59992 24.7039C9.53302 24.5801 9.47641 24.4511 9.44039 24.3118C9.40437 24.1777 9.38378 24.0384 9.38893 23.894V12.1786C8.88461 12.3643 8.39574 12.5913 7.93259 12.8596C7.46945 13.133 7.03203 13.4425 6.62035 13.7881C6.21381 14.1338 5.833 14.5155 5.48821 14.9282C5.14342 15.3357 4.83981 15.7794 4.57221 16.2437H4.56192ZM38.6958 24.2087C38.8193 24.2809 38.9325 24.3634 39.0354 24.4666C39.1332 24.5646 39.2207 24.6781 39.2927 24.8019C39.3596 24.9257 39.4162 25.0598 39.4522 25.194C39.4831 25.3333 39.5037 25.4725 39.4986 25.617V37.3324C41.1504 36.7236 42.5913 35.6558 43.6566 34.2526C44.727 32.8495 45.3702 31.1729 45.5195 29.4189C45.6687 27.665 45.3188 25.9007 44.5057 24.3376C43.6926 22.7746 42.4524 21.4746 40.9292 20.5976L30.9921 14.8405C30.9818 14.8371 30.9698 14.8336 30.9561 14.8302H30.9201C30.9098 14.8336 30.8978 14.8371 30.884 14.8405C30.8737 14.8439 30.8635 14.8491 30.8532 14.856L26.7054 17.2599L38.7061 24.2087H38.6958ZM42.8383 17.9667H42.8332V17.9718L42.8383 17.9667ZM42.8332 17.9615C43.1317 16.2282 42.931 14.4433 42.2517 12.8183C41.5776 11.1933 40.4506 9.7953 39.0097 8.7842C37.5688 7.77826 35.8706 7.20048 34.1158 7.1231C32.3558 7.05088 30.6164 7.47905 29.0932 8.35603L19.1562 14.108C19.1459 14.1148 19.1373 14.1234 19.1304 14.1338L19.1098 14.1647C19.1064 14.175 19.103 14.1871 19.0996 14.2008C19.0961 14.2111 19.0944 14.2232 19.0944 14.2369V19.0448L31.095 12.0961C31.2185 12.0239 31.3523 11.9723 31.4861 11.931C31.6251 11.8949 31.764 11.8794 31.903 11.8794C32.0471 11.8794 32.186 11.8949 32.3249 11.931C32.4587 11.9723 32.5874 12.0239 32.7109 12.0961L42.545 17.7913C42.6325 17.8428 42.7612 17.9151 42.8332 17.9615ZM16.8301 12.6377C16.8301 12.4985 16.8507 12.3592 16.8867 12.2199C16.9228 12.0858 16.9742 11.9516 17.0463 11.8278C17.1183 11.7092 17.2007 11.5957 17.3036 11.4925C17.4014 11.3945 17.5146 11.3068 17.6381 11.2397L27.4722 5.54971C27.5648 5.49296 27.6935 5.42074 27.7655 5.38463C26.4173 4.25488 24.7705 3.53266 23.026 3.31084C21.2815 3.08385 19.5112 3.36242 17.9211 4.11043C16.3258 4.85844 14.9776 6.0501 14.0358 7.5358C13.0941 9.02666 12.5949 10.7497 12.5949 12.5139V24.0178C12.5984 24.0315 12.6018 24.0436 12.6052 24.0539C12.6086 24.0642 12.6138 24.0745 12.6207 24.0849C12.6275 24.0952 12.6361 24.1055 12.6464 24.1158C12.6532 24.1227 12.6635 24.1296 12.6773 24.1364L16.8301 26.5404V12.6377ZM19.0841 27.8404L24.4309 30.9356L29.7776 27.8404V21.6551L24.436 18.5599L19.0893 21.6551L19.0841 27.8404Z" fill="#507080"/>
</g>
<defs>
<clipPath id="clip0_463_2301">
<rect width="48.8783" height="49.513" fill="white"/>
</clipPath>
</defs>
</svg>
