<svg width="18" height="18" viewBox="0 0 18 18" fill="none" xmlns="http://www.w3.org/2000/svg">
<path d="M17.4658 13.2959L16.6455 16.748C16.543 17.2607 16.1328 17.6025 15.6201 17.6025C7.00684 17.5684 0 10.5615 0 1.94824C0 1.43555 0.307617 1.02539 0.820312 0.922852L4.27246 0.102539C4.75098 0 5.26367 0.273438 5.46875 0.717773L7.0752 4.44336C7.24609 4.8877 7.14355 5.40039 6.76758 5.67383L4.92188 7.17773C6.08398 9.53613 7.99805 11.4502 10.3906 12.6123L11.8945 10.7666C12.168 10.4248 12.6807 10.2881 13.125 10.459L16.8506 12.0654C17.2949 12.3047 17.5684 12.8174 17.4658 13.2959Z" fill="#F0F0F0"/>
</svg>
