<svg width="22" height="25" viewBox="0 0 22 25" fill="none" xmlns="http://www.w3.org/2000/svg">
<path d="M7.03125 9.375H18.75C20.459 9.375 21.875 10.791 21.875 12.5V21.875C21.875 23.6328 20.459 25 18.75 25H3.125C1.36719 25 0 23.6328 0 21.875V12.5C0 10.791 1.36719 9.375 3.125 9.375H3.90625V7.03125C3.90625 3.17383 7.03125 0 10.9375 0C13.7207 0 16.1621 1.66016 17.2852 4.05273C17.627 4.83398 17.2852 5.76172 16.5039 6.10352C15.7227 6.49414 14.7949 6.15234 14.4531 5.37109C13.8184 4.05273 12.4512 3.125 10.9375 3.125C8.74023 3.125 7.03125 4.88281 7.03125 7.03125V9.375Z" fill="#507080"/>
</svg>
