<svg width="15" height="17" viewBox="0 0 15 17" fill="none" xmlns="http://www.w3.org/2000/svg">
<path d="M2.65625 6.375V4.78125C2.65625 2.1582 4.78125 0 7.4375 0C10.0605 0 12.2188 2.1582 12.2188 4.78125V6.375H12.75C13.9121 6.375 14.875 7.33789 14.875 8.5V14.875C14.875 16.0703 13.9121 17 12.75 17H2.125C0.929688 17 0 16.0703 0 14.875V8.5C0 7.33789 0.929688 6.375 2.125 6.375H2.65625ZM4.78125 6.375H10.0938V4.78125C10.0938 3.32031 8.89844 2.125 7.4375 2.125C5.94336 2.125 4.78125 3.32031 4.78125 4.78125V6.375Z" fill="white"/>
</svg>
