<svg width="32" height="25" viewBox="0 0 32 25" fill="none" xmlns="http://www.w3.org/2000/svg">
<path d="M15.5762 15.625C12.793 15.625 10.498 13.3789 10.5469 10.5469C10.5469 7.76367 12.793 5.46875 15.5762 5.46875C18.3594 5.46875 20.6543 7.76367 20.6543 10.5469C20.6543 13.3789 18.4082 15.625 15.5762 15.625ZM18.0176 17.1875C21.875 17.1875 25 20.1172 25 23.7305C25 24.4629 24.3652 25 23.584 25H7.61719C6.83594 25 6.25 24.4629 6.25 23.7305C6.25 20.1172 9.32617 17.1875 13.1836 17.1875H18.0176ZM25 7.8125C22.8027 7.8125 21.0938 6.10352 21.0938 3.90625C21.0938 1.75781 22.8027 0 25 0C27.1484 0 28.9062 1.75781 28.9062 3.90625C28.9062 6.10352 27.1484 7.8125 25 7.8125ZM8.93555 10.5469C8.93555 12.207 9.57031 13.7207 10.5957 14.8438H0.830078C0.341797 14.8438 0 14.4531 0 13.9648C0 11.4258 1.9043 9.375 4.29688 9.375H7.27539C7.91016 9.375 8.49609 9.52148 9.0332 9.81445C8.98438 10.0586 8.93555 10.3027 8.93555 10.5469ZM6.25 7.8125C4.05273 7.8125 2.34375 6.10352 2.34375 3.90625C2.34375 1.75781 4.05273 0 6.25 0C8.39844 0 10.1562 1.75781 10.1562 3.90625C10.1562 6.10352 8.39844 7.8125 6.25 7.8125ZM26.9043 9.375C29.2969 9.375 31.25 11.4258 31.25 13.9648C31.25 14.4531 30.8594 14.8438 30.3711 14.8438H20.6055C21.6309 13.7207 22.2168 12.207 22.2168 10.5469C22.2168 10.3027 22.168 10.0586 22.168 9.81445C22.7051 9.57031 23.291 9.375 23.9258 9.375H26.9043Z" fill="white"/>
</svg>
