<svg width="17" height="17" viewBox="0 0 17 17" fill="none" xmlns="http://www.w3.org/2000/svg">
<path d="M16.125 14.3438C16.5938 14.8438 16.5938 15.625 16.125 16.125C15.625 16.5938 14.8438 16.5938 14.3438 16.125L10.625 12.375C9.34375 13.2188 7.78125 13.6562 6.09375 13.4375C3.21875 13.0312 0.90625 10.6875 0.53125 7.84375C0 3.59375 3.59375 0 7.84375 0.53125C10.6875 0.90625 13.0312 3.21875 13.4375 6.09375C13.6562 7.78125 13.2188 9.34375 12.375 10.5938L16.125 14.3438ZM2.96875 6.96875C2.96875 9.1875 4.75 10.9688 6.96875 10.9688C9.15625 10.9688 10.9688 9.1875 10.9688 6.96875C10.9688 4.78125 9.15625 2.96875 6.96875 2.96875C4.75 2.96875 2.96875 4.78125 2.96875 6.96875Z" fill="white"/>
</svg>
