<svg width="22" height="22" viewBox="0 0 22 22" fill="none" xmlns="http://www.w3.org/2000/svg">
<path d="M18.5547 3.22266C20.6055 5.27344 21.875 7.95898 21.875 10.8887C21.875 16.8457 16.8945 21.7285 10.8887 21.7285C9.08203 21.7285 7.32422 21.2402 5.71289 20.4102L0 21.875L1.51367 16.2598C0.585938 14.6484 0.0488281 12.793 0.0488281 10.8398C0.0488281 4.88281 4.93164 0 10.8887 0C13.8184 0 16.5527 1.17188 18.5547 3.22266ZM10.8887 19.873C15.8691 19.873 20.0195 15.8203 20.0195 10.8887C20.0195 8.44727 18.9941 6.20117 17.2852 4.49219C15.5762 2.7832 13.3301 1.85547 10.9375 1.85547C5.95703 1.85547 1.9043 5.9082 1.9043 10.8398C1.9043 12.5488 2.39258 14.209 3.27148 15.6738L3.51562 16.0156L2.58789 19.3359L6.00586 18.4082L6.29883 18.6035C7.71484 19.4336 9.27734 19.873 10.8887 19.873ZM15.8691 13.1348C16.1133 13.2812 16.3086 13.3301 16.3574 13.4766C16.4551 13.5742 16.4551 14.1113 16.2109 14.7461C15.9668 15.3809 14.8926 15.9668 14.4043 16.0156C13.5254 16.1621 12.8418 16.1133 11.1328 15.332C8.39844 14.1602 6.64062 11.4258 6.49414 11.2793C6.34766 11.084 5.41992 9.81445 5.41992 8.44727C5.41992 7.12891 6.10352 6.49414 6.34766 6.20117C6.5918 5.9082 6.88477 5.85938 7.08008 5.85938C7.22656 5.85938 7.42188 5.85938 7.56836 5.85938C7.76367 5.85938 7.95898 5.81055 8.20312 6.34766C8.39844 6.88477 8.98438 8.20312 9.0332 8.34961C9.08203 8.49609 9.13086 8.64258 9.0332 8.83789C8.54492 9.86328 7.95898 9.81445 8.25195 10.3027C9.32617 12.1094 10.3516 12.7441 11.9629 13.5254C12.207 13.6719 12.3535 13.623 12.5488 13.4766C12.6953 13.2812 13.2324 12.6465 13.3789 12.4023C13.5742 12.1094 13.7695 12.1582 14.0137 12.2559C14.2578 12.3535 15.5762 12.9883 15.8691 13.1348Z" fill="#303030"/>
</svg>
