<svg width="25" height="25" viewBox="0 0 25 25" fill="none" xmlns="http://www.w3.org/2000/svg">
<path d="M12.1094 0C18.75 0 24.2188 5.46875 24.2188 12.1094C24.2188 18.7988 18.75 24.2188 12.1094 24.2188C5.41992 24.2188 0 18.7988 0 12.1094C0 5.46875 5.41992 0 12.1094 0ZM17.6758 8.25195C17.7246 8.10547 17.7246 7.95898 17.6758 7.76367C17.6758 7.66602 17.5781 7.51953 17.5293 7.4707C17.3828 7.32422 17.1387 7.32422 17.041 7.32422C16.6016 7.32422 15.8691 7.56836 12.5 8.98438C11.3281 9.47266 8.98438 10.4492 5.46875 12.0117C4.88281 12.2559 4.58984 12.4512 4.54102 12.6953C4.49219 13.0859 5.12695 13.2324 5.85938 13.4766C6.49414 13.6719 7.32422 13.916 7.76367 13.916C8.1543 13.916 8.59375 13.7695 9.08203 13.4277C12.3535 11.1816 14.0625 10.0586 14.1602 10.0586C14.2578 10.0586 14.3555 10.0098 14.4043 10.0586C14.502 10.1562 14.502 10.2539 14.4531 10.3027C14.4043 10.5469 11.3281 13.3789 11.1328 13.5742C10.4492 14.2578 9.66797 14.6973 10.8887 15.4785C11.9141 16.1621 12.5 16.6016 13.5742 17.2852C14.2578 17.7246 14.7949 18.2617 15.4785 18.2129C15.8203 18.1641 16.1621 17.8711 16.3086 16.9434C16.748 14.8438 17.5293 10.1562 17.6758 8.25195Z" fill="#303030"/>
</svg>
