<svg width="22" height="22" viewBox="0 0 22 22" fill="none" xmlns="http://www.w3.org/2000/svg">
<path d="M1.51367 1.5625C3.02734 0 5.51758 0 10.498 0H11.3281C16.3086 0 18.7988 0 20.3125 1.5625C21.875 3.07617 21.875 5.56641 21.875 10.5469V11.377C21.875 16.3574 21.875 18.8477 20.3125 20.3613C18.7988 21.875 16.3086 21.875 11.3281 21.875H10.498C5.51758 21.875 3.02734 21.875 1.51367 20.3613C0 18.8477 0 16.3574 0 11.377V10.5469C0 5.56641 0 3.07617 1.51367 1.5625ZM3.66211 6.68945C3.80859 12.3535 6.64062 15.7715 11.6211 15.7715H11.9141V12.5488C12.793 12.6465 13.623 12.9883 14.2578 13.5742C14.9414 14.1602 15.4297 14.9414 15.6738 15.7715H18.2617C18.0176 14.7949 17.5293 13.8672 16.8945 13.0859C16.2109 12.3047 15.4297 11.6699 14.502 11.2305C15.332 10.7422 16.0156 10.0586 16.6016 9.27734C17.1387 8.49609 17.5293 7.61719 17.7246 6.68945H15.3809C14.8438 8.49609 13.3301 10.1074 11.9141 10.2539V6.68945H9.57031V12.9883C8.10547 12.5977 6.25 10.8398 6.15234 6.68945H3.66211Z" fill="#303030"/>
</svg>
