<svg width="47" height="18" viewBox="0 0 47 18" fill="none" xmlns="http://www.w3.org/2000/svg">
<path d="M7.45058e-08 -1.19209e-06H7.65C9.56667 -1.19209e-06 11.05 0.374999 12.1 1.125C13.1667 1.85833 13.7 2.95833 13.7 4.425C13.7 6.375 12.8167 7.65 11.05 8.25C12.0167 8.53333 12.8167 9.03333 13.45 9.75C14.0833 10.45 14.4 11.4 14.4 12.6C14.4 13.55 14.1917 14.3667 13.775 15.05C13.3583 15.7167 12.7917 16.2167 12.075 16.55C11.375 16.8833 10.65 17.125 9.9 17.275C9.16667 17.425 8.375 17.5 7.525 17.5H7.45058e-08V-1.19209e-06ZM10.65 12.2C10.65 10.7 9.65833 9.95 7.675 9.95H3.725V14.45H7.475C8.45833 14.45 9.23333 14.2917 9.8 13.975C10.3667 13.6583 10.65 13.0667 10.65 12.2ZM9.975 5.075C9.975 3.74167 9.09167 3.075 7.325 3.075H3.75V7.075H7.525C8.25833 7.075 8.85 6.90833 9.3 6.575C9.75 6.225 9.975 5.725 9.975 5.075ZM16.8387 1.95C18.522 0.75 20.472 0.15 22.6887 0.15C24.5053 0.15 25.9887 0.575 27.1387 1.425C28.3053 2.275 28.8887 3.525 28.8887 5.175C28.8887 6.45833 28.472 7.55833 27.6387 8.475C26.822 9.375 25.7053 10.2417 24.2887 11.075C22.622 12.0583 21.597 12.725 21.2137 13.075C20.7637 13.5083 20.5303 13.9167 20.5137 14.3L29.0137 14.275V17.5H16.2637V15.825C16.2637 14.9083 16.397 14.0833 16.6637 13.35C16.947 12.6167 17.397 11.9583 18.0137 11.375C18.647 10.7917 19.172 10.3583 19.5887 10.075C20.0053 9.775 20.6387 9.375 21.4887 8.875C21.5387 8.84167 21.5803 8.81667 21.6137 8.8C21.647 8.78333 21.6887 8.75833 21.7387 8.725C21.7887 8.69167 21.8303 8.66667 21.8637 8.65C21.9637 8.58333 22.172 8.46667 22.4887 8.3C22.822 8.11667 23.0387 7.99167 23.1387 7.925C23.2387 7.85833 23.4137 7.75 23.6637 7.6C23.9137 7.43333 24.0887 7.30833 24.1887 7.225C24.2887 7.125 24.4137 6.99167 24.5637 6.825C24.7303 6.65833 24.847 6.50833 24.9137 6.375C24.9803 6.24167 25.0387 6.08333 25.0887 5.9C25.1387 5.71667 25.1637 5.525 25.1637 5.325C25.1637 4.70833 24.9137 4.24167 24.4137 3.925C23.9137 3.59167 23.222 3.425 22.3387 3.425C20.4387 3.425 18.6053 4.1 16.8387 5.45V1.95ZM32.0313 -1.19209e-06H39.6813C41.5979 -1.19209e-06 43.0813 0.374999 44.1313 1.125C45.1979 1.85833 45.7313 2.95833 45.7313 4.425C45.7313 6.375 44.8479 7.65 43.0813 8.25C44.0479 8.53333 44.8479 9.03333 45.4813 9.75C46.1146 10.45 46.4313 11.4 46.4313 12.6C46.4313 13.55 46.2229 14.3667 45.8063 15.05C45.3896 15.7167 44.8229 16.2167 44.1063 16.55C43.4063 16.8833 42.6813 17.125 41.9313 17.275C41.1979 17.425 40.4063 17.5 39.5563 17.5H32.0313V-1.19209e-06ZM42.6813 12.2C42.6813 10.7 41.6896 9.95 39.7063 9.95H35.7563V14.45H39.5063C40.4896 14.45 41.2646 14.2917 41.8313 13.975C42.3979 13.6583 42.6813 13.0667 42.6813 12.2ZM42.0063 5.075C42.0063 3.74167 41.1229 3.075 39.3563 3.075H35.7813V7.075H39.5563C40.2896 7.075 40.8813 6.90833 41.3313 6.575C41.7813 6.225 42.0063 5.725 42.0063 5.075Z" fill="#F0F0F0"/>
</svg>
