<svg width="44" height="44" viewBox="0 0 44 44" fill="none" xmlns="http://www.w3.org/2000/svg">
<path d="M15.7603 -0.000107765C18.3301 -0.000107765 20.5572 2.227 20.5572 4.79675V39.06C20.5572 41.7154 18.3301 43.8569 15.7603 43.8569C13.2763 43.8569 11.2205 42.0581 10.9635 39.574C10.5352 39.7453 10.0212 39.7453 9.59296 39.7453C6.50926 39.7453 4.11083 37.3469 4.11083 34.2632C4.11083 33.6636 4.19649 33.0639 4.36781 32.4643C1.79806 31.5221 -0.000759125 29.038 -0.000759125 26.04C-0.000759125 23.3846 1.54109 20.9861 3.85386 19.8726C3.16859 18.9303 2.7403 17.7311 2.7403 16.4463C2.7403 13.8765 4.53912 11.6494 7.02321 11.1355C6.8519 10.6215 6.8519 10.1076 6.8519 9.59361C6.8519 7.10952 8.56506 4.88241 10.9635 4.2828C11.2205 1.88437 13.2763 -0.000107765 15.7603 -0.000107765ZM32.8063 4.2828C35.2048 4.88241 37.0036 7.10952 37.0036 9.59361C37.0036 10.1076 36.9179 10.6215 36.7466 11.1355C39.2307 11.6494 41.1152 13.8765 41.1152 16.4463C41.1152 17.7311 40.6012 18.9303 39.916 19.8726C42.2287 20.9861 43.8562 23.3846 43.8562 26.04C43.8562 29.038 41.9717 31.5221 39.402 32.4643C39.5733 33.0639 39.7446 33.6636 39.7446 34.2632C39.7446 37.3469 37.2605 39.7453 34.2625 39.7453C33.7486 39.7453 33.2346 39.7453 32.8063 39.574C32.5493 42.0581 30.4936 43.8569 28.0951 43.8569C25.4397 43.8569 23.2983 41.7154 23.2983 39.06V4.79675C23.2983 2.227 25.4397 -0.000107765 28.0951 -0.000107765C30.4936 -0.000107765 32.5493 1.88437 32.8063 4.2828Z" fill="white"/>
</svg>
