<svg width="18" height="16" viewBox="0 0 18 16" fill="none" xmlns="http://www.w3.org/2000/svg">
<path d="M9.02344 0C9.46777 0 9.84375 0.375977 9.84375 0.820312V1.09375H15.8594C16.748 1.09375 17.5 1.8457 17.5 2.73438V4.92188C17.5 5.84473 16.748 6.5625 15.8594 6.5625H9.84375V6.83594C9.84375 7.31445 9.46777 7.65625 9.02344 7.65625C8.54492 7.65625 8.20312 7.31445 8.20312 6.83594V6.5625H1.64062C0.717773 6.5625 0 5.84473 0 4.92188V2.73438C0 1.8457 0.717773 1.09375 1.64062 1.09375H8.20312V0.820312C8.20312 0.375977 8.54492 0 9.02344 0ZM5.46875 4.375H8.20312V3.28125H5.46875V4.375ZM9.84375 3.28125V4.375H15.3125V3.28125H9.84375ZM1.64062 14.2188C0.717773 14.2188 0 13.501 0 12.5781V10.3906C0 9.50195 0.717773 8.75 1.64062 8.75H11.4844V8.47656C11.4844 8.03223 11.8262 7.65625 12.3047 7.65625C12.749 7.65625 13.125 8.03223 13.125 8.47656V8.75H15.8594C16.748 8.75 17.5 9.50195 17.5 10.3906V12.5781C17.5 13.501 16.748 14.2188 15.8594 14.2188H13.125V14.4922C13.125 14.9707 12.749 15.3125 12.3047 15.3125C11.8262 15.3125 11.4844 14.9707 11.4844 14.4922V14.2188H1.64062ZM11.4844 10.9375H8.75V12.0312H11.4844V10.9375ZM13.125 12.0312H15.3125V10.9375H13.125V12.0312Z" fill="#F0F0F0"/>
</svg>
