<svg width="46" height="46" viewBox="0 0 46 46" fill="none" xmlns="http://www.w3.org/2000/svg">
<g clip-path="url(#clip0_463_2330)">
<path d="M8.97808 30.3848L17.9617 25.3438L18.112 24.9044L17.9617 24.6616H17.5224L16.0193 24.5691L10.8858 24.4304L6.43445 24.2454L2.12185 24.0142L1.03503 23.7829L0.0175781 22.4417L0.121636 21.7711L1.03503 21.1584L2.34153 21.274L5.23201 21.4705L9.56774 21.7711L12.7126 21.9561L17.372 22.4417H18.112L18.2161 22.1411L17.9617 21.9561L17.7652 21.7711L13.2791 18.7303L8.42311 15.5161L5.87948 13.6662L4.50361 12.7297L3.80989 11.851L3.50928 9.93171L4.75797 8.55584L6.43445 8.67146L6.86225 8.78708L8.56185 10.0936L12.1923 12.9031L16.9327 16.3948L17.6264 16.9729L17.9039 16.7764L17.9386 16.6376L17.6264 16.1173L15.0481 11.4579L12.2964 6.71749L11.0708 4.75196L10.7471 3.57264C10.6314 3.08704 10.5505 2.68237 10.5505 2.18521L11.9726 0.254363L12.7588 0L14.655 0.254363L15.4528 0.948079L16.6321 3.64201L18.5398 7.88524L21.4997 13.6547L22.3668 15.3658L22.8293 16.9498L23.0027 17.4354H23.3033V17.1579L23.5461 13.909L23.997 9.92015L24.4364 4.78664L24.5867 3.3414L25.3035 1.60711L26.7257 0.670593L27.8356 1.20244L28.749 2.50894L28.6218 3.35296L28.0784 6.87935L27.0147 12.406L26.321 16.1058H26.7257L27.1881 15.6433L29.0612 13.1575L32.206 9.22643L33.5935 7.66557L35.2121 5.94284L36.2527 5.12194H38.2182L39.6635 7.27246L39.016 9.49235L36.9927 12.0591L35.3162 14.2327L32.9113 17.4701L31.4082 20.06L31.547 20.2681L31.9054 20.2334L37.3395 19.0772L40.2763 18.5454L43.7795 17.9441L45.3635 18.6841L45.5369 19.4356L44.9126 20.9734L41.1665 21.8983L36.773 22.777L30.2289 24.3263L30.148 24.3841L30.2405 24.4998L33.1888 24.7772L34.449 24.8466H37.5361L43.2824 25.2744L44.7854 26.2687L45.6872 27.4827L45.5369 28.4077L43.2245 29.587L40.1028 28.847L32.8188 27.1128L30.3214 26.4884H29.9746V26.6965L32.0557 28.7314L35.8712 32.1769L40.6462 36.6167L40.889 37.715L40.2763 38.5822L39.6288 38.4897L35.4318 35.3333L33.8131 33.9112L30.148 30.8241H29.9052V31.1479L30.7492 32.385L35.2121 39.0909L35.4434 41.1489L35.1196 41.8195L33.9634 42.2242L32.6916 41.993L30.0786 38.3278L27.3847 34.2002L25.211 30.5004L24.9451 30.6507L23.6617 44.4672L23.0605 45.1725L21.6731 45.7043L20.5169 44.8256L19.9041 43.4035L20.5169 40.594L21.2569 36.9288L21.8581 34.0152L22.4015 30.3963L22.7252 29.1939L22.7021 29.113L22.4362 29.1477L19.7076 32.8937L15.5568 38.5013L12.2732 42.0161L11.487 42.3283L10.1227 41.623L10.2499 40.3627L11.013 39.2412L15.5568 33.4603L18.297 29.8761L20.066 27.8065L20.0544 27.5059H19.9504L7.8797 35.3449L5.72918 35.6223L4.80422 34.7552L4.91984 33.3331L5.35919 32.8706L8.98964 30.3732L8.97808 30.3848Z" fill="#507080"/>
</g>
<defs>
<clipPath id="clip0_463_2330">
<rect width="45.7043" height="45.7043" fill="white"/>
</clipPath>
</defs>
</svg>
