<svg width="18" height="18" viewBox="0 0 18 18" fill="none" xmlns="http://www.w3.org/2000/svg">
<path d="M8.75 17.5C3.89648 17.5 0 13.6035 0 8.75C0 3.93066 3.89648 0 8.75 0C13.5693 0 17.5 3.93066 17.5 8.75C17.5 13.6035 13.5693 17.5 8.75 17.5ZM7.92969 8.75C7.92969 9.02344 8.06641 9.29688 8.27148 9.43359L11.5527 11.6211C11.9287 11.8945 12.4414 11.792 12.6807 11.416C12.9541 11.04 12.8516 10.5273 12.4756 10.2539L9.57031 8.33984V4.10156C9.57031 3.65723 9.19434 3.28125 8.71582 3.28125C8.27148 3.28125 7.89551 3.65723 7.89551 4.10156L7.92969 8.75Z" fill="#F0F0F0"/>
</svg>
