<svg width="18" height="18" viewBox="0 0 18 18" fill="none" xmlns="http://www.w3.org/2000/svg">
<path d="M17.5 2.73438C17.5 3.38379 16.9873 3.93066 16.167 4.375C15.1758 4.95605 13.7061 5.33203 11.9971 5.43457C11.8604 5.40039 11.7236 5.33203 11.6211 5.26367C10.2539 4.7168 8.47656 4.375 6.5625 4.375C6.25488 4.375 5.98145 4.40918 5.70801 4.40918L5.67383 4.375C4.85352 3.93066 4.375 3.38379 4.375 2.73438C4.375 1.23047 7.28027 0 10.9375 0C14.5605 0 17.5 1.23047 17.5 2.73438ZM5.46875 5.53711C5.81055 5.50293 6.18652 5.46875 6.5625 5.46875C8.68164 5.46875 10.5615 5.91309 11.7578 6.5625C12.6123 7.00684 13.125 7.58789 13.125 8.20312C13.125 8.33984 13.0908 8.47656 13.0225 8.61328C12.8857 9.05762 12.4414 9.46777 11.8262 9.84375H11.792C10.5957 10.5273 8.68164 10.9375 6.5625 10.9375C4.51172 10.9375 2.7002 10.5615 1.46973 9.94629C1.40137 9.91211 1.36719 9.87793 1.29883 9.84375C0.478516 9.39941 0 8.81836 0 8.20312C0 7.04102 1.81152 6.01562 4.375 5.63965C4.7168 5.57129 5.09277 5.53711 5.46875 5.53711ZM13.3643 6.3916C14.3555 6.25488 15.2441 6.01562 15.9961 5.70801C16.543 5.46875 17.0557 5.16113 17.5 4.81934V6.01562C17.5 6.69922 16.9189 7.31445 15.9961 7.75879C15.4834 8.03223 14.8682 8.2373 14.1846 8.4082C14.1846 8.33984 14.2188 8.27148 14.2188 8.20312C14.2188 7.48535 13.8428 6.87012 13.3643 6.3916ZM13.125 11.4844C13.125 12.0996 12.6123 12.6807 11.792 13.125C11.7236 13.1592 11.6895 13.1934 11.6211 13.2275C10.3906 13.8428 8.5791 14.2188 6.5625 14.2188C4.40918 14.2188 2.49512 13.8086 1.29883 13.125C0.478516 12.6807 0 12.0996 0 11.4844V10.2881C0.410156 10.6299 0.922852 10.9375 1.46973 11.1768C2.83691 11.7236 4.61426 12.0312 6.5625 12.0312C8.47656 12.0312 10.2539 11.7236 11.6211 11.1768C11.8604 11.04 12.1338 10.9375 12.373 10.8008C12.5781 10.6641 12.7832 10.5273 12.9541 10.3906C13.0225 10.3564 13.0566 10.3223 13.125 10.2881V11.4844ZM14.2188 9.53613C14.834 9.36523 15.4492 9.19434 15.9961 8.98926C16.543 8.75 17.0557 8.44238 17.5 8.10059V9.29688C17.5 9.67285 17.3291 10.0146 16.9873 10.3564C16.4062 10.9375 15.4492 11.3818 14.1846 11.6895C14.1846 11.6211 14.2188 11.5527 14.2188 11.4844V9.53613ZM6.5625 15.3125C8.47656 15.3125 10.2539 15.0049 11.6211 14.458C12.168 14.2188 12.6807 13.9111 13.125 13.5693V14.7656C13.125 16.3037 10.1855 17.5 6.5625 17.5C2.90527 17.5 0 16.3037 0 14.7656V13.5693C0.410156 13.9111 0.922852 14.2188 1.46973 14.458C2.83691 15.0049 4.61426 15.3125 6.5625 15.3125Z" fill="#F0F0F0"/>
</svg>
