<svg width="30" height="27" viewBox="0 0 30 27" fill="none" xmlns="http://www.w3.org/2000/svg">
<path d="M3.75 21.5625C3.75 22.0898 4.16016 22.5 4.6875 22.5H28.125C29.1211 22.5 30 23.3789 30 24.375C30 25.4297 29.1211 26.25 28.125 26.25H4.6875C2.05078 26.25 0 24.1992 0 21.5625V1.875C0 0.878906 0.820312 0 1.875 0C2.87109 0 3.75 0.878906 3.75 1.875V21.5625ZM7.5 16.875V11.9531C7.5 11.543 7.61719 11.0742 7.91016 10.7227L12.5977 5.44922C13.3594 4.57031 14.707 4.57031 15.4102 5.44922L17.7539 8.20312C18.2812 8.84766 19.2188 8.90625 19.8047 8.32031L21.0352 7.08984C21.7969 6.32812 23.0859 6.38672 23.7891 7.20703L27.6562 11.6602C27.9492 12.0117 28.125 12.4805 28.125 12.8906V16.875C28.125 17.9297 27.2461 18.75 26.25 18.75H9.31641C8.32031 18.75 7.44141 17.9297 7.44141 16.875H7.5Z" fill="#F0F0F0"/>
</svg>
