<svg width="40" height="31" viewBox="0 0 40 31" fill="none" xmlns="http://www.w3.org/2000/svg">
<path d="M35 0C37.3926 0 39.375 1.98242 39.375 4.375V6.5625H0V4.375C0 1.98242 1.91406 0 4.375 0H35ZM39.375 26.25C39.375 28.7109 37.3926 30.625 35 30.625H4.375C1.91406 30.625 0 28.7109 0 26.25V13.125H39.375V26.25ZM7.65625 21.875C7.04102 21.875 6.5625 22.4219 6.5625 22.9688C6.5625 23.584 7.04102 24.0625 7.65625 24.0625H12.0312C12.5781 24.0625 13.125 23.584 13.125 22.9688C13.125 22.4219 12.5781 21.875 12.0312 21.875H7.65625ZM16.4062 24.0625H25.1562C25.7031 24.0625 26.25 23.584 26.25 22.9688C26.25 22.4219 25.7031 21.875 25.1562 21.875H16.4062C15.791 21.875 15.3125 22.4219 15.3125 22.9688C15.3125 23.584 15.791 24.0625 16.4062 24.0625Z" fill="#F0F0F0"/>
</svg>
