<svg width="20" height="20" viewBox="0 0 20 20" fill="none" xmlns="http://www.w3.org/2000/svg">
<path d="M11.0156 13.4375L9.6875 14.7266C9.53125 14.9219 9.29688 15 9.0625 15H7.5V16.5625C7.5 17.1094 7.07031 17.5 6.5625 17.5H5V19.0625C5 19.6094 4.57031 20 4.0625 20H0.9375C0.390625 20 0 19.6094 0 19.0625V15.9375C0 15.7031 0.078125 15.4688 0.273438 15.2734L6.5625 8.98438C6.32812 8.32031 6.25 7.61719 6.25 6.875C6.25 3.08594 9.29688 0 13.125 0C16.9141 0 20 3.08594 20 6.875C20 10.7031 16.9141 13.75 13.125 13.75C12.3828 13.75 11.6797 13.6719 11.0156 13.4375ZM14.6875 6.875C15.5469 6.875 16.25 6.21094 16.25 5.3125C16.25 4.45312 15.5469 3.75 14.6875 3.75C13.7891 3.75 13.125 4.45312 13.125 5.3125C13.125 6.21094 13.7891 6.875 14.6875 6.875Z" fill="#F0F0F0"/>
</svg>
