<svg width="19" height="22" viewBox="0 0 19 22" fill="none" xmlns="http://www.w3.org/2000/svg">
<path d="M18.4082 13.623L10.5957 21.4355C10.3027 21.7285 9.91211 21.875 9.52148 21.875C9.08203 21.875 8.69141 21.7285 8.39844 21.4355L0.585938 13.623C0.146484 13.1836 0 12.5 0.244141 11.9141C0.488281 11.3281 1.07422 10.9375 1.70898 10.9375H6.39648V1.5625C6.39648 0.732422 7.08008 0 7.95898 0H11.084C11.9141 0 12.6465 0.732422 12.6465 1.5625V10.9375H17.334C17.9199 10.9375 18.5059 11.3281 18.75 11.9141C18.9941 12.5 18.8477 13.1836 18.4082 13.623Z" fill="#507080"/>
</svg>
