<svg width="219" height="60" viewBox="0 0 219 60" fill="none" xmlns="http://www.w3.org/2000/svg">
<path d="M88.0256 40.0142H83.054C82.9877 39.5038 82.8518 39.0431 82.6463 38.6321C82.4408 38.2211 82.169 37.8698 81.831 37.5781C81.4929 37.2865 81.0919 37.0644 80.6278 36.9119C80.1705 36.7528 79.6634 36.6733 79.1065 36.6733C78.1188 36.6733 77.267 36.9152 76.5511 37.3991C75.8419 37.883 75.295 38.5824 74.9105 39.4972C74.5327 40.4119 74.3438 41.5189 74.3438 42.8182C74.3438 44.1705 74.536 45.304 74.9205 46.2188C75.3116 47.1269 75.8584 47.813 76.5611 48.277C77.2704 48.7344 78.1089 48.9631 79.0767 48.9631C79.6203 48.9631 80.1141 48.8935 80.5582 48.7543C81.009 48.6151 81.4034 48.4129 81.7415 48.1477C82.0862 47.8759 82.3679 47.5478 82.5866 47.1634C82.812 46.7723 82.9678 46.3314 83.054 45.8409L88.0256 45.8707C87.9394 46.7723 87.6776 47.6605 87.2401 48.5355C86.8092 49.4105 86.2159 50.2093 85.4602 50.9318C84.7045 51.6477 83.7831 52.2178 82.696 52.642C81.6155 53.0663 80.3759 53.2784 78.9773 53.2784C77.1345 53.2784 75.4839 52.8741 74.0256 52.0653C72.5739 51.25 71.4271 50.0634 70.5852 48.5057C69.7434 46.9479 69.3224 45.0521 69.3224 42.8182C69.3224 40.5777 69.75 38.6785 70.6051 37.1207C71.4602 35.563 72.617 34.3797 74.0753 33.571C75.5336 32.7623 77.1676 32.358 78.9773 32.358C80.2102 32.358 81.3504 32.5303 82.3977 32.875C83.4451 33.2131 84.3665 33.7102 85.1619 34.3665C85.9574 35.0161 86.6037 35.8149 87.1009 36.7628C87.598 37.7107 87.9062 38.7945 88.0256 40.0142ZM90.842 32.6364H95.7539V44.3693H95.9229L103.937 32.6364H108.173V53H103.251V41.2472H103.122L95.0082 53H90.842V32.6364ZM129.752 40.0142H124.781C124.714 39.5038 124.578 39.0431 124.373 38.6321C124.167 38.2211 123.896 37.8698 123.558 37.5781C123.219 37.2865 122.818 37.0644 122.354 36.9119C121.897 36.7528 121.39 36.6733 120.833 36.6733C119.845 36.6733 118.994 36.9152 118.278 37.3991C117.568 37.883 117.022 38.5824 116.637 39.4972C116.259 40.4119 116.07 41.5189 116.07 42.8182C116.07 44.1705 116.263 45.304 116.647 46.2188C117.038 47.1269 117.585 47.813 118.288 48.277C118.997 48.7344 119.835 48.9631 120.803 48.9631C121.347 48.9631 121.841 48.8935 122.285 48.7543C122.736 48.6151 123.13 48.4129 123.468 48.1477C123.813 47.8759 124.094 47.5478 124.313 47.1634C124.539 46.7723 124.694 46.3314 124.781 45.8409L129.752 45.8707C129.666 46.7723 129.404 47.6605 128.967 48.5355C128.536 49.4105 127.942 50.2093 127.187 50.9318C126.431 51.6477 125.51 52.2178 124.423 52.642C123.342 53.0663 122.103 53.2784 120.704 53.2784C118.861 53.2784 117.21 52.8741 115.752 52.0653C114.3 51.25 113.154 50.0634 112.312 48.5057C111.47 46.9479 111.049 45.0521 111.049 42.8182C111.049 40.5777 111.477 38.6785 112.332 37.1207C113.187 35.563 114.344 34.3797 115.802 33.571C117.26 32.7623 118.894 32.358 120.704 32.358C121.937 32.358 123.077 32.5303 124.124 32.875C125.172 33.2131 126.093 33.7102 126.888 34.3665C127.684 35.0161 128.33 35.8149 128.827 36.7628C129.325 37.7107 129.633 38.7945 129.752 40.0142ZM131.902 36.6335V32.6364H149.114V36.6335H142.939V53H138.087V36.6335H131.902ZM151.518 53V32.6364H165.717V36.6335H156.44V40.8097H164.991V44.8168H156.44V49.0028H165.717V53H151.518ZM168.799 32.6364H174.894L180.065 45.2443H180.303L185.474 32.6364H191.569V53H186.776V40.4915H186.607L181.715 52.8707H178.653L173.761 40.4219H173.592V53H168.799V32.6364ZM197.811 39.8153H202.345C204.009 39.8153 205.454 40.0838 206.68 40.6207C207.906 41.1577 208.854 41.9134 209.524 42.8878C210.2 43.8622 210.538 45.009 210.538 46.3281C210.538 47.6473 210.2 48.8073 209.524 49.8082C208.854 50.8092 207.906 51.5914 206.68 52.1548C205.454 52.7183 204.009 53 202.345 53H194.738V32.6364H199.65V49.1023H202.345C203.061 49.1023 203.664 48.9796 204.154 48.7344C204.652 48.4825 205.026 48.1444 205.278 47.7202C205.537 47.2893 205.663 46.812 205.656 46.2884C205.663 45.5327 205.381 44.9029 204.811 44.3991C204.241 43.8887 203.419 43.6335 202.345 43.6335H197.811V39.8153ZM216.991 32.6364V53H212.079V32.6364H216.991Z" fill="white"/>
<path d="M10.1025 10.1025C10.5919 9.61311 11.4985 9.20257 13.1581 9.27174C14.8207 9.34106 16.97 9.89249 19.4952 11.0029C24.5302 13.2171 30.5689 17.4349 36.3214 23.1874C42.0737 28.9398 46.291 34.978 48.5052 40.0129C49.6156 42.5381 50.167 44.6874 50.2363 46.35C50.3055 48.0095 49.895 48.9162 49.4056 49.4056C48.9163 49.895 48.0097 50.3055 46.35 50.2363C44.6874 50.167 42.5382 49.6156 40.013 48.5051C34.978 46.2909 28.9398 42.0737 23.1874 36.3213C17.435 30.5689 13.2172 24.5302 11.003 19.4951C9.89255 16.97 9.34109 14.8206 9.2718 13.1581C9.20264 11.4984 9.61314 10.5918 10.1025 10.1025Z" stroke="white" stroke-width="5"/>
<path d="M49.4053 10.1025C48.9159 9.61311 48.0093 9.20257 46.3497 9.27174C44.6871 9.34106 42.5378 9.89249 40.0127 11.0029C34.9776 13.2171 28.9389 17.4349 23.1864 23.1874C17.4341 28.9398 13.2168 34.978 11.0026 40.0129C9.89221 42.5381 9.34079 44.6874 9.27146 46.35C9.20229 48.0095 9.61283 48.9162 10.1022 49.4056C10.5916 49.895 11.4981 50.3055 13.1578 50.2363C14.8204 50.167 16.9697 49.6156 19.4948 48.5051C24.5298 46.2909 30.568 42.0737 36.3204 36.3213C42.0729 30.5689 46.2906 24.5302 48.5048 19.4951C49.6153 16.97 50.1667 14.8206 50.236 13.1581C50.3052 11.4984 49.8947 10.5918 49.4053 10.1025Z" stroke="white" stroke-width="5"/>
<path d="M81.9801 27L75.5767 18.5483H74.4631V27H69.5412V6.63636H74.4631V14.5412H75.2486L81.5526 6.63636H87.7074L79.8622 16.2514L88.1151 27H81.9801ZM107.929 16.8182C107.929 19.0587 107.498 20.9579 106.637 22.5156C105.775 24.0734 104.608 25.2566 103.137 26.0653C101.672 26.8741 100.028 27.2784 98.2049 27.2784C96.3754 27.2784 94.7281 26.8707 93.2631 26.0554C91.7982 25.2401 90.6348 24.0568 89.7731 22.5057C88.918 20.9479 88.4904 19.0521 88.4904 16.8182C88.4904 14.5777 88.918 12.6785 89.7731 11.1207C90.6348 9.56297 91.7982 8.37973 93.2631 7.57102C94.7281 6.76231 96.3754 6.35795 98.2049 6.35795C100.028 6.35795 101.672 6.76231 103.137 7.57102C104.608 8.37973 105.775 9.56297 106.637 11.1207C107.498 12.6785 107.929 14.5777 107.929 16.8182ZM102.898 16.8182C102.898 15.4924 102.709 14.3722 102.331 13.4574C101.96 12.5426 101.423 11.8499 100.721 11.3793C100.025 10.9086 99.186 10.6733 98.2049 10.6733C97.2305 10.6733 96.3919 10.9086 95.6893 11.3793C94.9866 11.8499 94.4464 12.5426 94.0685 13.4574C93.6973 14.3722 93.5117 15.4924 93.5117 16.8182C93.5117 18.1439 93.6973 19.2642 94.0685 20.179C94.4464 21.0937 94.9866 21.7865 95.6893 22.2571C96.3919 22.7277 97.2305 22.9631 98.2049 22.9631C99.186 22.9631 100.025 22.7277 100.721 22.2571C101.423 21.7865 101.96 21.0937 102.331 20.179C102.709 19.2642 102.898 18.1439 102.898 16.8182ZM110.803 27V6.63636H119.215C120.739 6.63636 122.055 6.93466 123.162 7.53125C124.276 8.12121 125.134 8.94649 125.738 10.0071C126.341 11.0611 126.642 12.2874 126.642 13.6861C126.642 15.0914 126.334 16.321 125.718 17.375C125.108 18.4223 124.236 19.2344 123.103 19.8111C121.969 20.3878 120.623 20.6761 119.066 20.6761H113.875V16.7983H118.151C118.893 16.7983 119.513 16.669 120.01 16.4105C120.514 16.152 120.895 15.7907 121.154 15.3267C121.412 14.8561 121.542 14.3092 121.542 13.6861C121.542 13.0563 121.412 12.5128 121.154 12.0554C120.895 11.5914 120.514 11.2334 120.01 10.9815C119.507 10.7296 118.887 10.6037 118.151 10.6037H115.725V27H110.803ZM129.069 27V6.63636H143.267V10.6335H133.99V14.8097H142.542V18.8168H133.99V23.0028H143.267V27H129.069ZM158.789 27L152.385 18.5483H151.272V27H146.35V6.63636H151.272V14.5412H152.057L158.361 6.63636H164.516L156.671 16.2514L164.924 27H158.789ZM184.002 14.0142H179.031C178.964 13.5038 178.828 13.0431 178.623 12.6321C178.417 12.2211 178.146 11.8698 177.808 11.5781C177.469 11.2865 177.068 11.0644 176.604 10.9119C176.147 10.7528 175.64 10.6733 175.083 10.6733C174.095 10.6733 173.244 10.9152 172.528 11.3991C171.818 11.883 171.272 12.5824 170.887 13.4972C170.509 14.4119 170.32 15.5189 170.32 16.8182C170.32 18.1705 170.513 19.304 170.897 20.2188C171.288 21.1269 171.835 21.813 172.538 22.277C173.247 22.7344 174.085 22.9631 175.053 22.9631C175.597 22.9631 176.091 22.8935 176.535 22.7543C176.986 22.6151 177.38 22.4129 177.718 22.1477C178.063 21.8759 178.344 21.5478 178.563 21.1634C178.789 20.7723 178.944 20.3314 179.031 19.8409L184.002 19.8707C183.916 20.7723 183.654 21.6605 183.217 22.5355C182.786 23.4105 182.192 24.2093 181.437 24.9318C180.681 25.6477 179.76 26.2178 178.673 26.642C177.592 27.0663 176.353 27.2784 174.954 27.2784C173.111 27.2784 171.46 26.8741 170.002 26.0653C168.55 25.25 167.404 24.0634 166.562 22.5057C165.72 20.9479 165.299 19.0521 165.299 16.8182C165.299 14.5777 165.727 12.6785 166.582 11.1207C167.437 9.56297 168.594 8.37973 170.052 7.57102C171.51 6.76231 173.144 6.35795 174.954 6.35795C176.187 6.35795 177.327 6.5303 178.374 6.875C179.422 7.21307 180.343 7.71023 181.138 8.36648C181.934 9.0161 182.58 9.81487 183.077 10.7628C183.575 11.7107 183.883 12.7945 184.002 14.0142Z" fill="white"/>
</svg>
